<svg xmlns="http://www.w3.org/2000/svg" viewBox="0 0 64 64">
  <defs>
    <linearGradient id="bg" x1="5" y1="58" x2="59" y2="6" gradientUnits="userSpaceOnUse">
      <stop stop-color="#101827"/>
      <stop offset="0.62" stop-color="#141a2e"/>
      <stop offset="1" stop-color="#183453"/>
    </linearGradient>
    <linearGradient id="area" x1="32" y1="15" x2="32" y2="53" gradientUnits="userSpaceOnUse">
      <stop stop-color="#34d399" stop-opacity="0.42"/>
      <stop offset="1" stop-color="#34d399" stop-opacity="0.14"/>
    </linearGradient>
  </defs>
  <rect x="2" y="2" width="60" height="60" rx="13" fill="url(#bg)"/>
  <path d="M14 10v44M30 10v44M46 10v44M9 22h46M9 38h46" fill="none" stroke="#2a3b58" stroke-width="1.2" opacity="0.72"/>
  <path d="M9 54V19l4-6 3 17 4-14 4 20 5-7 4 13 4-8 5 16 5-9 4 5 4-1v9H9Z" fill="url(#area)"/>
  <path d="M10 18 14 12 17 30 21 16 25 36 30 29 34 42 38 34 43 50 48 41 52 47 55 45" fill="none" stroke="#34d399" stroke-width="4.4" stroke-linecap="round" stroke-linejoin="round"/>
  <path d="M11 18c5 2 9 8 13 14 5 8 8 8 12 8 7 0 7 12 16 9" fill="none" stroke="#d4a72c" stroke-width="3.4" stroke-linecap="round" stroke-linejoin="round" stroke-dasharray="4 4"/>
  <rect x="2" y="2" width="60" height="60" rx="13" fill="none" stroke="#1f3b63" stroke-width="2"/>
</svg>
